<svg xmlns="http://www.w3.org/2000/svg" viewBox="0 0 17.03 24.41"><path fill="#caa966" d="M11.1.41C10.29.15 9.4 0 8.5 0 5.9 0 3.56 1.18 1.99 3.04l4.02 3.37z"/><path fill="#998155" d="M1.99 3.04A8.47 8.47 0 0 0 0 8.5c0 1.6.31 2.89.85 4.06l5.16-6.14z"/><path fill="#875b6d" d="M8.52 5.25a3.254 3.254 0 0 1 2.49 5.36s2.56-3.06 5.07-6.03A8.47 8.47 0 0 0 11.1.4L6.01 6.41c.61-.7 1.49-1.16 2.51-1.16"/><path fill="#caa966" d="M8.52 11.76c-1.81 0-3.26-1.46-3.26-3.26 0-.79.28-1.53.76-2.08L.85 12.55c.88 1.95 2.36 3.54 3.87 5.51l6.29-7.47a3.23 3.23 0 0 1-2.49 1.16"/><path fill="#6a4352" d="M10.89 20.13c2.84-4.44 6.14-6.45 6.14-11.61 0-1.42-.35-2.75-.96-3.93L4.71 18.07c.48.63.98 1.35 1.46 2.08 1.73 2.67 1.25 4.26 2.36 4.26s.63-1.6 2.36-4.28"/></svg>